<svg width="24" height="24" viewBox="0 0 24 24" fill="none" xmlns="http://www.w3.org/2000/svg">
<g clip-path="url(#clip0_155_95)">
<path d="M26 -3H-1V27.5H26V-3Z" fill="#6DA544"/>
<path d="M2.08571 12.4805L12.0906 6.04001L22.1429 12.4652L12.1118 18.96L2.08571 12.4805Z" fill="#FFDA44"/>
<path d="M12.3075 16.7524C14.6707 16.7524 16.5864 14.8647 16.5864 12.5362C16.5864 10.2077 14.6707 8.32005 12.3075 8.32005C9.94436 8.32005 8.02865 10.2077 8.02865 12.5362C8.02865 14.8647 9.94436 16.7524 12.3075 16.7524Z" fill="#0052B4"/>
<path d="M11.9113 10.8777C14.8375 11.4845 16.538 13.171 16.538 13.171C16.4928 13.4994 16.3798 13.839 16.3798 13.839C14.4987 12.0857 12.1486 11.6124 12.1486 11.6124C10.0557 11.1156 8.16601 11.4733 8.16601 11.4733C8.2253 11.2354 8.39476 10.8263 8.39476 10.8263C8.39476 10.8263 9.82116 10.5661 11.9113 10.8777Z" fill="white"/>
<path d="M8.80988 11.6052L8.85106 11.7302H8.98429L8.87642 11.8073L8.91776 11.9324L8.80988 11.8551L8.70201 11.9324L8.74318 11.8073L8.63531 11.7302H8.76855L8.80988 11.6052Z" fill="white"/>
<path d="M10.6684 12.5616L10.7043 12.6703H10.8203L10.7264 12.7376L10.7623 12.8463L10.6684 12.7792L10.5744 12.8463L10.6103 12.7376L10.5164 12.6703H10.6325L10.6684 12.5616Z" fill="white"/>
<path d="M9.61191 13.1961L9.63381 13.2623H9.70447L9.64732 13.3033L9.66922 13.3695L9.61191 13.3287L9.55476 13.3695L9.57667 13.3033L9.51935 13.2623H9.59017L9.61191 13.1961Z" fill="white"/>
<path d="M9.18838 13.368L9.23416 13.5071H9.38255L9.26249 13.593L9.30844 13.732L9.18838 13.6461L9.06832 13.732L9.1141 13.593L8.99404 13.5071H9.14243L9.18838 13.368Z" fill="white"/>
<path d="M8.6574 13.7941L8.69117 13.8967H8.80069L8.71208 13.9602L8.74601 14.0628L8.6574 13.9993L8.56863 14.0628L8.60256 13.9602L8.51396 13.8967H8.62348L8.6574 13.7941Z" fill="white"/>
<path d="M10.0792 13.8343L10.1131 13.9369H10.2226L10.134 14.0004L10.1678 14.103L10.0792 14.0395L9.99055 14.103L10.0245 14.0004L9.93587 13.9369H10.0454L10.0792 13.8343Z" fill="white"/>
<path d="M9.94924 14.2572L9.98317 14.3598H10.0927L10.0041 14.4233L10.038 14.5259L9.94924 14.4624L9.86064 14.5259L9.89456 14.4233L9.80596 14.3598H9.91548L9.94924 14.2572Z" fill="white"/>
<path d="M10.582 14.6199L10.6199 14.7347H10.7424L10.6432 14.8056L10.6811 14.9204L10.582 14.8495L10.483 14.9204L10.5207 14.8056L10.4217 14.7347H10.5441L10.582 14.6199Z" fill="white"/>
<path d="M12.2938 14.2803L12.3315 14.3951H12.454L12.3549 14.4659L12.3927 14.5807L12.2938 14.5097L12.1946 14.5807L12.2325 14.4659L12.1334 14.3951H12.2559L12.2938 14.2803Z" fill="white"/>
<path d="M12.7964 13.4509L12.8315 13.5572H12.9449L12.853 13.6229L12.8881 13.7292L12.7964 13.6635L12.7047 13.7292L12.7397 13.6229L12.648 13.5572H12.7615L12.7964 13.4509Z" fill="white"/>
<path d="M12.2938 13.0669L12.3287 13.1732H12.4422L12.3505 13.2389L12.3855 13.3452L12.2938 13.2795L12.2019 13.3452L12.237 13.2389L12.1453 13.1732H12.2587L12.2938 13.0669Z" fill="white"/>
<path d="M11.8617 13.4536L11.8926 13.5477H11.9931L11.9119 13.6059L11.9429 13.7L11.8617 13.6418L11.7803 13.7L11.8114 13.6059L11.7301 13.5477H11.8305L11.8617 13.4536Z" fill="white"/>
<path d="M12.0762 13.7914L12.0993 13.8612H12.1739L12.1136 13.9045L12.1367 13.9743L12.0762 13.9311L12.0159 13.9743L12.039 13.9045L11.9786 13.8612H12.0532L12.0762 13.7914Z" fill="white"/>
<path d="M13.4615 12.2396L13.4845 12.3095H13.5591L13.4987 12.3527L13.5217 12.4226L13.4615 12.3793L13.401 12.4226L13.4241 12.3527L13.3638 12.3095H13.4384L13.4615 12.2396Z" fill="white"/>
<path d="M13.6253 11.0427L13.668 11.1722H13.806L13.6943 11.2522L13.737 11.3816L13.6253 11.3016L13.5135 11.3816L13.5561 11.2522L13.4445 11.1722H13.5825L13.6253 11.0427Z" fill="white"/>
<path d="M15.2917 13.8427L15.3343 13.9721H15.4725L15.3608 14.0521L15.4035 14.1814L15.2917 14.1015L15.18 14.1814L15.2226 14.0521L15.111 13.9721H15.249L15.2917 13.8427Z" fill="white"/>
<path d="M15.2012 14.5719L15.237 14.6801H15.3524L15.259 14.7469L15.2946 14.8552L15.2012 14.7883L15.108 14.8552L15.1436 14.7469L15.0502 14.6801H15.1656L15.2012 14.5719Z" fill="white"/>
<path d="M15.4669 14.2492L15.5025 14.3572H15.6179L15.5245 14.4241L15.5603 14.5323L15.4669 14.4655L15.3735 14.5323L15.4091 14.4241L15.3157 14.3572H15.4311L15.4669 14.2492Z" fill="white"/>
<path d="M15.8849 13.9317L15.9121 14.0144H16.0003L15.929 14.0654L15.9562 14.1481L15.8849 14.097L15.8136 14.1481L15.8407 14.0654L15.7694 14.0144H15.8575L15.8849 13.9317Z" fill="white"/>
<path d="M14.8623 14.8279L14.8897 14.9105H14.9778L14.9065 14.9616L14.9336 15.0442L14.8623 14.993L14.791 15.0442L14.8183 14.9616L14.747 14.9105H14.8351L14.8623 14.8279Z" fill="white"/>
<path d="M14.4387 15.1404L14.47 15.2352H14.5711L14.4893 15.2938L14.5206 15.3886L14.4387 15.3301L14.3569 15.3886L14.3881 15.2938L14.3063 15.2352H14.4074L14.4387 15.1404Z" fill="white"/>
<path d="M14.4104 14.7498L14.4364 14.8284H14.5203L14.4524 14.877L14.4783 14.9555L14.4104 14.9069L14.3426 14.9555L14.3686 14.877L14.3007 14.8284H14.3846L14.4104 14.7498Z" fill="white"/>
<path d="M13.9473 14.8999L13.9731 14.9786H14.057L13.9891 15.0271L14.0151 15.1058L13.9473 15.0572L13.8794 15.1058L13.9053 15.0271L13.8374 14.9786H13.9213L13.9473 14.8999Z" fill="white"/>
<path d="M13.2412 14.7888L13.267 14.8673H13.351L13.2832 14.9159L13.309 14.9945L13.2412 14.9459L13.1733 14.9945L13.1992 14.9159L13.1313 14.8673H13.2153L13.2412 14.7888Z" fill="white"/>
<path d="M14.4364 15.6021L14.4623 15.6807H14.5463L14.4784 15.7292L14.5043 15.8078L14.4364 15.7592L14.3686 15.8078L14.3944 15.7292L14.3267 15.6807H14.4106L14.4364 15.6021Z" fill="white"/>
<path d="M13.5835 15.2514L13.6149 15.3469H13.7169L13.6344 15.4061L13.666 15.5016L13.5835 15.4426L13.501 15.5016L13.5324 15.4061L13.4499 15.3469H13.5519L13.5835 15.2514Z" fill="white"/>
<path d="M12.3067 15.7803L12.3215 15.8248H12.3689L12.3306 15.8524L12.3452 15.897L12.3067 15.8694L12.2683 15.897L12.283 15.8524L12.2446 15.8248H12.292L12.3067 15.7803Z" fill="white"/>
<path d="M8.77431 11.0716C8.79802 11.1919 8.72688 11.2657 8.62493 11.2804C8.51936 11.2957 8.42747 11.237 8.40079 11.132C8.37279 11.022 8.43735 10.9358 8.55 10.9197C8.66495 10.9034 8.75389 10.9678 8.77431 11.0716ZM8.45711 11.1219C8.47539 11.1963 8.53797 11.2549 8.61966 11.2434C8.70201 11.2317 8.73495 11.16 8.71864 11.0809C8.70431 11.0114 8.64585 10.9441 8.55576 10.9569C8.46617 10.9698 8.4385 11.0457 8.45711 11.1219Z" fill="#4C29F2"/>
<path d="M8.99829 10.8771C9.02497 10.8697 9.06383 10.8636 9.10138 10.8604C9.15952 10.8556 9.19839 10.8617 9.22721 10.8797C9.2506 10.8938 9.26558 10.917 9.26937 10.9441C9.27563 10.9904 9.24549 11.0236 9.20399 11.0393L9.20415 11.0409C9.23726 11.0478 9.25965 11.0717 9.27448 11.1075C9.29457 11.1556 9.30873 11.1889 9.31894 11.2017C9.30099 11.203 9.28304 11.2041 9.26509 11.2054C9.25718 11.196 9.24384 11.1663 9.22606 11.1235C9.20695 11.0759 9.18225 11.0592 9.13399 11.0618C9.11736 11.0632 9.10073 11.0647 9.08409 11.0661C9.09233 11.1168 9.1004 11.1674 9.10863 11.2181C9.09134 11.2197 9.07405 11.2213 9.05659 11.2229C9.03715 11.1076 9.01756 10.9924 8.99829 10.8771ZM9.07833 11.032C9.09644 11.0304 9.11472 11.0288 9.13284 11.0273C9.18966 11.0225 9.22194 10.9935 9.21634 10.9532C9.20992 10.9079 9.16792 10.8909 9.11061 10.8952C9.08442 10.8975 9.06614 10.9011 9.05774 10.904C9.06466 10.9467 9.07141 10.9892 9.07833 11.032Z" fill="#4C29F2"/>
<path d="M9.52168 10.8415C9.55429 10.8361 9.59348 10.8314 9.63663 10.8301C9.71486 10.8279 9.77168 10.8423 9.81038 10.8707C9.84958 10.8991 9.87362 10.9398 9.87708 10.9968C9.88054 11.0544 9.86275 11.1015 9.82702 11.1344C9.79128 11.1677 9.73051 11.1865 9.65228 11.1889C9.61522 11.19 9.58393 11.1895 9.55742 11.1881C9.54556 11.0727 9.53354 10.9569 9.52168 10.8415ZM9.60616 11.1511C9.61967 11.1527 9.63894 11.1527 9.65936 11.152C9.77086 11.1488 9.82784 11.0943 9.82158 10.9989C9.81664 10.9157 9.75719 10.8631 9.6424 10.8664C9.6144 10.8672 9.59332 10.87 9.57932 10.8731C9.58821 10.9657 9.59727 11.0584 9.60616 11.1511Z" fill="#4C29F2"/>
<path d="M10.3432 11.0251C10.29 11.0228 10.2368 11.0209 10.1834 11.0195C10.1844 11.0618 10.1852 11.1041 10.1862 11.1466C10.2447 11.1482 10.303 11.1503 10.3613 11.1528V11.191C10.286 11.1875 10.2104 11.1851 10.135 11.1834C10.1315 11.0659 10.1281 10.9484 10.1248 10.8309C10.2005 10.8325 10.2763 10.8351 10.3519 10.8385C10.3519 10.8511 10.3519 10.864 10.3519 10.8766C10.2946 10.8741 10.2373 10.872 10.18 10.8705C10.1808 10.9077 10.1816 10.9447 10.1824 10.9819C10.2359 10.9834 10.2895 10.9853 10.3428 10.9876C10.3428 11.0001 10.3432 11.0126 10.3432 11.0251Z" fill="#4C29F2"/>
<path d="M10.9566 11.0818C10.9573 11.0326 10.958 10.9736 10.9619 10.93L10.9601 10.9298C10.943 10.9694 10.9225 11.0113 10.8987 11.0574C10.8708 11.1116 10.8433 11.166 10.8165 11.2205C10.8035 11.2192 10.7903 11.2181 10.7773 11.2168C10.7587 11.1591 10.7396 11.1015 10.72 11.044C10.7027 10.993 10.688 10.9462 10.6778 10.9037H10.6765C10.6735 10.9473 10.6683 11.006 10.6625 11.0584C10.6569 11.1083 10.6515 11.1583 10.646 11.2083C10.6296 11.207 10.6131 11.2059 10.5966 11.2046C10.6095 11.0881 10.6228 10.9715 10.6365 10.8551C10.6595 10.8569 10.6826 10.8587 10.7055 10.8604C10.7269 10.9189 10.7478 10.9776 10.7682 11.0361C10.7831 11.0809 10.7947 11.1206 10.803 11.158H10.8048C10.817 11.1235 10.8336 11.0863 10.8547 11.0438C10.8825 10.9896 10.9109 10.9356 10.9397 10.8817C10.9626 10.8842 10.9855 10.8866 11.0085 10.8891C11.0079 11.0068 11.0069 11.1243 11.0054 11.2418C10.9886 11.2399 10.9718 11.238 10.955 11.2362C10.9556 11.1846 10.9563 11.1334 10.9566 11.0818Z" fill="#4C29F2"/>
<path d="M11.7977 11.1993C11.7457 11.1891 11.6933 11.1791 11.6411 11.1698C11.6343 11.2113 11.6274 11.2529 11.6207 11.2945C11.678 11.3048 11.7353 11.3157 11.7924 11.3271C11.7901 11.3396 11.7878 11.3519 11.7855 11.3644C11.7118 11.3497 11.6378 11.3359 11.5635 11.3229C11.5816 11.2075 11.5998 11.0921 11.6179 10.9768C11.6923 10.9898 11.7666 11.0036 11.8407 11.0183C11.8384 11.0308 11.8361 11.0432 11.8338 11.0557C11.7776 11.0446 11.7215 11.0339 11.6651 11.0238C11.6592 11.0602 11.6533 11.0966 11.6472 11.1331C11.6997 11.1426 11.7523 11.1525 11.8046 11.1628C11.8023 11.1751 11.8 11.187 11.7977 11.1993Z" fill="#4C29F2"/>
<path d="M12.4097 11.1527C12.4359 11.1557 12.4698 11.1613 12.5118 11.1729C12.5635 11.1868 12.5983 11.2075 12.6171 11.2322C12.6345 11.2545 12.6403 11.2827 12.6314 11.3125C12.6223 11.343 12.6049 11.3636 12.5797 11.3755C12.5456 11.3922 12.4983 11.3925 12.4487 11.379C12.4336 11.3749 12.4196 11.3707 12.4086 11.3651C12.3964 11.4103 12.3844 11.4553 12.3722 11.5005C12.3555 11.4961 12.3387 11.4917 12.3221 11.4874C12.3512 11.3758 12.3806 11.2642 12.4097 11.1527ZM12.4183 11.3295C12.4288 11.3349 12.4427 11.3398 12.4596 11.3444C12.5212 11.3611 12.566 11.3463 12.5795 11.2998C12.5925 11.2554 12.5611 11.2234 12.5036 11.2077C12.4809 11.2016 12.4631 11.1984 12.4535 11.198C12.4418 11.2418 12.4301 11.2857 12.4183 11.3295Z" fill="#4C29F2"/>
<path d="M12.9068 11.296C12.9344 11.2998 12.9725 11.3093 13.0079 11.3208C13.0629 11.3388 13.0953 11.3591 13.1133 11.3862C13.1278 11.4077 13.1309 11.434 13.1213 11.4593C13.1054 11.5028 13.0626 11.5204 13.0174 11.5185L13.0169 11.5199C13.0438 11.5389 13.053 11.5684 13.0497 11.6057C13.0456 11.6559 13.0428 11.6908 13.0461 11.7062C13.0291 11.7005 13.0123 11.6945 12.9954 11.6889C12.9926 11.6775 12.9944 11.6463 12.9982 11.6015C13.0031 11.5522 12.9884 11.528 12.9433 11.5116C12.9275 11.5065 12.9119 11.5013 12.896 11.4962C12.8797 11.5441 12.8636 11.5921 12.8475 11.64C12.831 11.6347 12.8145 11.6294 12.7982 11.6243C12.8345 11.515 12.8705 11.4053 12.9068 11.296ZM12.9071 11.4635C12.9244 11.4691 12.9415 11.4747 12.9586 11.4803C13.0125 11.498 13.0553 11.4847 13.069 11.447C13.0843 11.4045 13.054 11.3733 13 11.355C12.9753 11.347 12.9568 11.3431 12.9479 11.3425C12.9343 11.3829 12.9208 11.4233 12.9071 11.4635Z" fill="#4C29F2"/>
<path d="M13.664 11.7501C13.6133 11.86 13.5095 11.8859 13.4147 11.8486C13.3165 11.8099 13.2735 11.7178 13.3126 11.619C13.3536 11.5155 13.4585 11.4763 13.5631 11.5177C13.6699 11.5599 13.7075 11.6556 13.664 11.7501ZM13.3661 11.6379C13.3379 11.7073 13.3562 11.7859 13.4321 11.8157C13.5085 11.8459 13.5787 11.8034 13.6115 11.7307C13.6401 11.6671 13.6301 11.5839 13.5463 11.5509C13.4629 11.5182 13.3949 11.5666 13.3661 11.6379Z" fill="#4C29F2"/>
<path d="M14.0991 12.1258C14.0747 12.1221 14.0278 12.1126 13.9789 12.0897C13.9241 12.0639 13.8849 12.0312 13.8636 11.9855C13.8452 11.9451 13.8458 11.8941 13.87 11.8451C13.9165 11.7511 14.0288 11.7165 14.1566 11.7766C14.2004 11.7973 14.2305 11.8216 14.2431 11.8359C14.2332 11.8449 14.2235 11.8539 14.2136 11.8628C14.1976 11.8459 14.1757 11.8277 14.1375 11.8098C14.0454 11.7663 13.9611 11.7872 13.9219 11.8661C13.8822 11.946 13.9148 12.0182 13.9995 12.0579C14.0303 12.0724 14.0533 12.0788 14.0665 12.0794C14.0831 12.0486 14.0996 12.0177 14.1163 11.9869C14.0914 11.9749 14.0663 11.963 14.0413 11.9513C14.0469 11.9406 14.0525 11.9297 14.0583 11.919C14.0991 11.9382 14.1398 11.9576 14.1803 11.9771C14.1533 12.0267 14.1261 12.0762 14.0991 12.1258Z" fill="#4C29F2"/>
<path d="M14.4982 11.9553C14.5248 11.9638 14.5609 11.9799 14.5939 11.9975C14.6449 12.0248 14.6729 12.0504 14.6853 12.0797C14.6953 12.1032 14.6928 12.1294 14.6782 12.1524C14.6531 12.1918 14.6069 12.2013 14.5624 12.1915L14.5616 12.1928C14.5843 12.2158 14.5874 12.2463 14.5764 12.2821C14.5619 12.3301 14.5519 12.3635 14.5519 12.3792C14.5362 12.3705 14.5206 12.3619 14.5051 12.3532C14.5046 12.3417 14.5128 12.3116 14.526 12.2688C14.5412 12.2216 14.5316 12.1955 14.4901 12.1714C14.4754 12.1636 14.4608 12.1559 14.4461 12.1482C14.4199 12.192 14.3938 12.2357 14.3677 12.2795C14.3524 12.2715 14.3373 12.2635 14.322 12.2554C14.3809 12.1554 14.4394 12.0552 14.4982 11.9553ZM14.4636 12.1185C14.4796 12.1269 14.4955 12.1354 14.5115 12.144C14.5614 12.1708 14.607 12.1654 14.6284 12.1312C14.6527 12.0926 14.6289 12.0568 14.5789 12.0294C14.5558 12.0172 14.5385 12.0102 14.5296 12.0079C14.5076 12.0448 14.4857 12.0817 14.4636 12.1185Z" fill="#4C29F2"/>
<path d="M15.0321 12.4698C14.987 12.4417 14.9417 12.4142 14.8961 12.3869C14.872 12.422 14.8478 12.4571 14.8238 12.4921C14.8737 12.522 14.9234 12.5523 14.9728 12.5831C14.9654 12.5935 14.9578 12.604 14.9504 12.6142C14.8867 12.5745 14.8223 12.5353 14.7576 12.4972C14.8238 12.3996 14.89 12.3018 14.9562 12.2041C15.0212 12.2426 15.0856 12.2817 15.1499 12.3217C15.1424 12.3321 15.1349 12.3425 15.1275 12.3529C15.0789 12.3226 15.0301 12.293 14.981 12.2636C14.96 12.2944 14.9387 12.3252 14.9176 12.3558C14.9634 12.3832 15.0089 12.4109 15.0542 12.4392C15.0468 12.4494 15.0395 12.4595 15.0321 12.4698Z" fill="#4C29F2"/>
<path d="M15.1853 12.699C15.1971 12.7219 15.219 12.7492 15.2487 12.7692C15.2928 12.7991 15.3338 12.7973 15.3564 12.7694C15.3771 12.7436 15.3712 12.7162 15.3369 12.6706C15.2945 12.6171 15.2778 12.5705 15.3083 12.5305C15.3419 12.4865 15.4124 12.4836 15.4799 12.5296C15.5155 12.5538 15.5357 12.5781 15.5454 12.5958C15.5334 12.6027 15.5216 12.6096 15.5095 12.6165C15.5023 12.6038 15.486 12.5796 15.4547 12.5583C15.4074 12.5262 15.3715 12.5371 15.3567 12.5563C15.3363 12.5826 15.3473 12.6096 15.3826 12.6562C15.4257 12.7138 15.4361 12.7564 15.403 12.797C15.3681 12.8396 15.3005 12.8499 15.2223 12.797C15.1902 12.7753 15.1612 12.7441 15.1508 12.7223C15.1624 12.7144 15.1737 12.7067 15.1853 12.699Z" fill="#4C29F2"/>
<path d="M15.5754 12.9716C15.586 12.9951 15.6062 13.0233 15.635 13.045C15.6775 13.077 15.7189 13.0777 15.7432 13.0509C15.7658 13.0262 15.7614 12.9986 15.7296 12.9514C15.6899 12.8956 15.676 12.8481 15.709 12.8101C15.7452 12.7681 15.8162 12.7688 15.8814 12.8183C15.9157 12.8443 15.9346 12.8698 15.9433 12.8877C15.9308 12.894 15.9185 12.9002 15.9061 12.9065C15.8997 12.8935 15.8847 12.8685 15.8544 12.8455C15.8088 12.8111 15.7722 12.8201 15.7561 12.8383C15.734 12.8633 15.7436 12.8908 15.7762 12.9393C15.8162 12.999 15.8241 13.0422 15.7884 13.0809C15.7508 13.1214 15.6825 13.1282 15.6069 13.0713C15.5759 13.048 15.5486 13.0152 15.5395 12.9929C15.5515 12.9857 15.5634 12.9788 15.5754 12.9716Z" fill="#4C29F2"/>
<path d="M16.3132 13.4074C16.2223 13.4919 16.1117 13.4807 16.0338 13.4143C15.9532 13.3456 15.9463 13.246 16.0219 13.1679C16.101 13.086 16.2176 13.0851 16.3034 13.1585C16.3911 13.2335 16.3915 13.3347 16.3132 13.4074ZM16.0665 13.2032C16.0127 13.258 16.0007 13.3366 16.0631 13.3896C16.1258 13.4433 16.2101 13.4278 16.2696 13.3715C16.3216 13.3225 16.3434 13.242 16.2745 13.1832C16.2062 13.1248 16.1217 13.1469 16.0665 13.2032Z" fill="#4C29F2"/>
</g>
<defs>
<clipPath id="clip0_155_95">
<rect width="24" height="24" rx="12" fill="white"/>
</clipPath>
</defs>
</svg>
