<svg width="24" height="24" viewBox="0 0 24 24" fill="none" xmlns="http://www.w3.org/2000/svg">
<g clip-path="url(#clip0_155_95)">
<path d="M53 -6H-12V28.6154H53V-6Z" fill="white"/>
<path d="M53 27.2308H-12V30H53V27.2308Z" fill="#DB1B1B"/>
<path d="M53 -6H-12V-3.23077H53V-6Z" fill="#DB1B1B"/>
<path d="M53 -0.461538H-12V2.30769H53V-0.461538Z" fill="#DB1B1B"/>
<path d="M53 5.07692H-12V7.84615H53V5.07692Z" fill="#DB1B1B"/>
<path d="M53 10.6154H-12V13.3846H53V10.6154Z" fill="#DB1B1B"/>
<path d="M53 16.1538H-12V18.9231H20.5H53V16.1538Z" fill="#DB1B1B"/>
<path d="M53 21.6923H-12V24.4615H53V21.6923Z" fill="#DB1B1B"/>
<path d="M14.2766 -6H-12V13.3846H14.2766V-6Z" fill="#3E436D"/>
<path d="M-9.79541 -4.67826L-9.55288 -3.92971H-8.76783L-9.40272 -3.46738L-9.16019 -2.71883L-9.79541 -3.18149L-10.4303 -2.71883L-10.1878 -3.46738L-10.823 -3.92971H-10.0379L-9.79541 -4.67826Z" fill="white"/>
<path d="M-7.659 -2.79685L-7.41647 -2.04862H-6.63142L-7.26631 -1.58629L-7.02378 -0.837739L-7.659 -1.3004L-8.29389 -0.837739L-8.05135 -1.58629L-8.68657 -2.04862H-7.90153L-7.659 -2.79685Z" fill="white"/>
<path d="M-7.659 0.878481L-7.41647 1.6267H-6.63142L-7.26631 2.08937L-7.02378 2.83759L-7.659 2.37525L-8.29389 2.83759L-8.05135 2.08937L-8.68657 1.6267H-7.90153L-7.659 0.878481Z" fill="white"/>
<path d="M-7.659 4.55381L-7.41647 5.30203H-6.63142L-7.26631 5.76469L-7.02378 6.51291L-7.659 6.05058L-8.29389 6.51291L-8.05135 5.76469L-8.68657 5.30203H-7.90153L-7.659 4.55381Z" fill="white"/>
<path d="M-7.659 8.22937L-7.41647 8.97759H-6.63142L-7.26631 9.44025L-7.02378 10.1885L-7.659 9.72614L-8.29389 10.1885L-8.05135 9.44025L-8.68657 8.97759H-7.90153L-7.659 8.22937Z" fill="white"/>
<path d="M-3.32838 -2.79685L-3.08585 -2.04862H-2.3008L-2.93569 -1.58629L-2.69316 -0.837739L-3.32838 -1.3004L-3.96327 -0.837739L-3.72074 -1.58629L-4.35595 -2.04862H-3.57091L-3.32838 -2.79685Z" fill="white"/>
<path d="M-3.32838 0.878481L-3.08585 1.6267H-2.3008L-2.93569 2.08937L-2.69316 2.83759L-3.32838 2.37525L-3.96327 2.83759L-3.72074 2.08937L-4.35595 1.6267H-3.57091L-3.32838 0.878481Z" fill="white"/>
<path d="M-3.32838 4.55381L-3.08585 5.30203H-2.3008L-2.93569 5.76469L-2.69316 6.51291L-3.32838 6.05058L-3.96327 6.51291L-3.72074 5.76469L-4.35595 5.30203H-3.57091L-3.32838 4.55381Z" fill="white"/>
<path d="M-3.32838 8.22937L-3.08585 8.97759H-2.3008L-2.93569 9.44025L-2.69316 10.1885L-3.32838 9.72614L-3.96327 10.1885L-3.72074 9.44025L-4.35595 8.97759H-3.57091L-3.32838 8.22937Z" fill="white"/>
<path d="M1.00236 -2.79685L1.24522 -2.04862H2.02993L1.39504 -1.58629L1.63757 -0.837739L1.00236 -1.3004L0.367468 -0.837739L0.61 -1.58629L-0.0252171 -2.04862H0.759827L1.00236 -2.79685Z" fill="white"/>
<path d="M1.00236 0.878481L1.24522 1.6267H2.02993L1.39504 2.08937L1.63757 2.83759L1.00236 2.37525L0.367468 2.83759L0.61 2.08937L-0.0252171 1.6267H0.759827L1.00236 0.878481Z" fill="white"/>
<path d="M1.00236 4.55381L1.24522 5.30203H2.02993L1.39504 5.76469L1.63757 6.51291L1.00236 6.05058L0.367468 6.51291L0.61 5.76469L-0.0252171 5.30203H0.759827L1.00236 4.55381Z" fill="white"/>
<path d="M1.00236 8.22937L1.24522 8.97759H2.02993L1.39504 9.44025L1.63757 10.1885L1.00236 9.72614L0.367468 10.1885L0.61 9.44025L-0.0252171 8.97759H0.759827L1.00236 8.22937Z" fill="white"/>
<path d="M5.33298 -2.79685L5.57583 -2.04862H6.36087L5.72566 -1.58629L5.96819 -0.837739L5.33298 -1.3004L4.69809 -0.837739L4.94062 -1.58629L4.3054 -2.04862H5.09044L5.33298 -2.79685Z" fill="white"/>
<path d="M5.33298 0.878481L5.57583 1.6267H6.36087L5.72566 2.08937L5.96819 2.83759L5.33298 2.37525L4.69809 2.83759L4.94062 2.08937L4.3054 1.6267H5.09044L5.33298 0.878481Z" fill="white"/>
<path d="M5.33298 4.55381L5.57583 5.30203H6.36087L5.72566 5.76469L5.96819 6.51291L5.33298 6.05058L4.69809 6.51291L4.94062 5.76469L4.3054 5.30203H5.09044L5.33298 4.55381Z" fill="white"/>
<path d="M5.33298 8.22937L5.57583 8.97759H6.36087L5.72566 9.44025L5.96819 10.1885L5.33298 9.72614L4.69809 10.1885L4.94062 9.44025L4.3054 8.97759H5.09044L5.33298 8.22937Z" fill="white"/>
<path d="M9.66383 -2.79685L9.90636 -2.04862H10.6911L10.0562 -1.58629L10.2987 -0.837739L9.66383 -1.3004L9.02861 -0.837739L9.27114 -1.58629L8.63626 -2.04862H9.42097L9.66383 -2.79685Z" fill="white"/>
<path d="M9.66383 0.878481L9.90636 1.6267H10.6911L10.0562 2.08937L10.2987 2.83759L9.66383 2.37525L9.02861 2.83759L9.27114 2.08937L8.63626 1.6267H9.42097L9.66383 0.878481Z" fill="white"/>
<path d="M9.66383 4.55381L9.90636 5.30203H10.6911L10.0562 5.76469L10.2987 6.51291L9.66383 6.05058L9.02861 6.51291L9.27114 5.76469L8.63626 5.30203H9.42097L9.66383 4.55381Z" fill="white"/>
<path d="M9.66383 8.22937L9.90636 8.97759H10.6911L10.0562 9.44025L10.2987 10.1885L9.66383 9.72614L9.02861 10.1885L9.27114 9.44025L8.63626 8.97759H9.42097L9.66383 8.22937Z" fill="white"/>
<path d="M-9.79541 -1.00293L-9.55288 -0.254386H-8.76783L-9.40272 0.207951L-9.16019 0.956498L-9.79541 0.493836L-10.4303 0.956498L-10.1878 0.207951L-10.823 -0.254386H-10.0379L-9.79541 -1.00293Z" fill="white"/>
<path d="M-9.79541 2.67287L-9.55288 3.42109H-8.76783L-9.40272 3.88375L-9.16019 4.63197L-9.79541 4.16964L-10.4303 4.63197L-10.1878 3.88375L-10.823 3.42109H-10.0379L-9.79541 2.67287Z" fill="white"/>
<path d="M-9.79541 6.3482L-9.55288 7.09642H-8.76783L-9.40272 7.55908L-9.16019 8.3073L-9.79541 7.84496L-10.4303 8.3073L-10.1878 7.55908L-10.823 7.09642H-10.0379L-9.79541 6.3482Z" fill="white"/>
<path d="M-9.79541 10.0238L-9.55288 10.772H-8.76783L-9.40272 11.2346L-9.16019 11.9829L-9.79541 11.5205L-10.4303 11.9829L-10.1878 11.2346L-10.823 10.772H-10.0379L-9.79541 10.0238Z" fill="white"/>
<path d="M-5.52252 -4.67826L-5.27999 -3.92971H-4.49495L-5.12984 -3.46738L-4.88731 -2.71883L-5.52252 -3.18149L-6.15741 -2.71883L-5.91488 -3.46738L-6.5501 -3.92971H-5.76506L-5.52252 -4.67826Z" fill="white"/>
<path d="M-5.52252 -1.00293L-5.27999 -0.254386H-4.49495L-5.12984 0.207951L-4.88731 0.956498L-5.52252 0.493836L-6.15741 0.956498L-5.91488 0.207951L-6.5501 -0.254386H-5.76506L-5.52252 -1.00293Z" fill="white"/>
<path d="M-5.52252 2.67287L-5.27999 3.42109H-4.49495L-5.12984 3.88375L-4.88731 4.63197L-5.52252 4.16964L-6.15741 4.63197L-5.91488 3.88375L-6.5501 3.42109H-5.76506L-5.52252 2.67287Z" fill="white"/>
<path d="M-5.52252 6.3482L-5.27999 7.09642H-4.49495L-5.12984 7.55908L-4.88731 8.3073L-5.52252 7.84496L-6.15741 8.3073L-5.91488 7.55908L-6.5501 7.09642H-5.76506L-5.52252 6.3482Z" fill="white"/>
<path d="M-5.52252 10.0238L-5.27999 10.772H-4.49495L-5.12984 11.2346L-4.88731 11.9829L-5.52252 11.5205L-6.15741 11.9829L-5.91488 11.2346L-6.5501 10.772H-5.76506L-5.52252 10.0238Z" fill="white"/>
<path d="M-1.13417 -4.67826L-0.891315 -3.92971H-0.106601L-0.741488 -3.46738L-0.498958 -2.71883L-1.13417 -3.18149L-1.76906 -2.71883L-1.52653 -3.46738L-2.16175 -3.92971H-1.3767L-1.13417 -4.67826Z" fill="white"/>
<path d="M-1.13417 -1.00293L-0.891315 -0.254386H-0.106601L-0.741488 0.207951L-0.498958 0.956498L-1.13417 0.493836L-1.76906 0.956498L-1.52653 0.207951L-2.16175 -0.254386H-1.3767L-1.13417 -1.00293Z" fill="white"/>
<path d="M-1.13417 2.67287L-0.891315 3.42109H-0.106601L-0.741488 3.88375L-0.498958 4.63197L-1.13417 4.16964L-1.76906 4.63197L-1.52653 3.88375L-2.16175 3.42109H-1.3767L-1.13417 2.67287Z" fill="white"/>
<path d="M-1.13417 6.3482L-0.891315 7.09642H-0.106601L-0.741488 7.55908L-0.498958 8.3073L-1.13417 7.84496L-1.76906 8.3073L-1.52653 7.55908L-2.16175 7.09642H-1.3767L-1.13417 6.3482Z" fill="white"/>
<path d="M-1.13417 10.0238L-0.891315 10.772H-0.106601L-0.741488 11.2346L-0.498958 11.9829L-1.13417 11.5205L-1.76906 11.9829L-1.52653 11.2346L-2.16175 10.772H-1.3767L-1.13417 10.0238Z" fill="white"/>
<path d="M3.16779 -4.67826L3.41032 -3.92971H4.19536L3.56014 -3.46738L3.80267 -2.71883L3.16779 -3.18149L2.53257 -2.71883L2.77543 -3.46738L2.14021 -3.92971H2.92525L3.16779 -4.67826Z" fill="white"/>
<path d="M3.16779 -1.00293L3.41032 -0.254386H4.19536L3.56014 0.207951L3.80267 0.956498L3.16779 0.493836L2.53257 0.956498L2.77543 0.207951L2.14021 -0.254386H2.92525L3.16779 -1.00293Z" fill="white"/>
<path d="M3.16779 2.67287L3.41032 3.42109H4.19536L3.56014 3.88375L3.80267 4.63197L3.16779 4.16964L2.53257 4.63197L2.77543 3.88375L2.14021 3.42109H2.92525L3.16779 2.67287Z" fill="white"/>
<path d="M3.16779 6.3482L3.41032 7.09642H4.19536L3.56014 7.55908L3.80267 8.3073L3.16779 7.84496L2.53257 8.3073L2.77543 7.55908L2.14021 7.09642H2.92525L3.16779 6.3482Z" fill="white"/>
<path d="M3.16779 10.0238L3.41032 10.772H4.19536L3.56014 11.2346L3.80267 11.9829L3.16779 11.5205L2.53257 11.9829L2.77543 11.2346L2.14021 10.772H2.92525L3.16779 10.0238Z" fill="white"/>
<path d="M7.46963 -4.67826L7.71216 -3.92971H8.4972L7.86198 -3.46738L8.10451 -2.71883L7.46963 -3.18149L6.83441 -2.71883L7.07694 -3.46738L6.44205 -3.92971H7.22677L7.46963 -4.67826Z" fill="white"/>
<path d="M7.46963 -1.00293L7.71216 -0.254386H8.4972L7.86198 0.207951L8.10451 0.956498L7.46963 0.493836L6.83441 0.956498L7.07694 0.207951L6.44205 -0.254386H7.22677L7.46963 -1.00293Z" fill="white"/>
<path d="M7.46963 2.67287L7.71216 3.42109H8.4972L7.86198 3.88375L8.10451 4.63197L7.46963 4.16964L6.83441 4.63197L7.07694 3.88375L6.44205 3.42109H7.22677L7.46963 2.67287Z" fill="white"/>
<path d="M7.46963 6.3482L7.71216 7.09642H8.4972L7.86198 7.55908L8.10451 8.3073L7.46963 7.84496L6.83441 8.3073L7.07694 7.55908L6.44205 7.09642H7.22677L7.46963 6.3482Z" fill="white"/>
<path d="M7.46963 10.0238L7.71216 10.772H8.4972L7.86198 11.2346L8.10451 11.9829L7.46963 11.5205L6.83441 11.9829L7.07694 11.2346L6.44205 10.772H7.22677L7.46963 10.0238Z" fill="white"/>
<path d="M11.8578 -4.67826L12.1007 -3.92971H12.8857L12.2505 -3.46738L12.493 -2.71883L11.8578 -3.18149L11.2229 -2.71883L11.4654 -3.46738L10.8302 -3.92971H11.6153L11.8578 -4.67826Z" fill="white"/>
<path d="M11.8578 -1.00293L12.1007 -0.254386H12.8857L12.2505 0.207951L12.493 0.956498L11.8578 0.493836L11.2229 0.956498L11.4654 0.207951L10.8302 -0.254386H11.6153L11.8578 -1.00293Z" fill="white"/>
<path d="M11.8578 2.67287L12.1007 3.42109H12.8857L12.2505 3.88375L12.493 4.63197L11.8578 4.16964L11.2229 4.63197L11.4654 3.88375L10.8302 3.42109H11.6153L11.8578 2.67287Z" fill="white"/>
<path d="M11.8578 6.3482L12.1007 7.09642H12.8857L12.2505 7.55908L12.493 8.3073L11.8578 7.84496L11.2229 8.3073L11.4654 7.55908L10.8302 7.09642H11.6153L11.8578 6.3482Z" fill="white"/>
<path d="M11.8578 10.0238L12.1007 10.772H12.8857L12.2505 11.2346L12.493 11.9829L11.8578 11.5205L11.2229 11.9829L11.4654 11.2346L10.8302 10.772H11.6153L11.8578 10.0238Z" fill="white"/>
</g>
<defs>
<clipPath id="clip0_155_95">
<rect width="24" height="24" rx="12" fill="white"/>
</clipPath>
</defs>
</svg>
